<?xml version="1.0" encoding="UTF-8" standalone="no"?>
<!-- Created with Inkscape (http://www.inkscape.org/) -->

<svg
   width="512"
   height="512"
   viewBox="0 0 135.46666 135.46667"
   version="1.1"
   id="svg1"
   sodipodi:docname="example.svg"
   inkscape:version="1.3.2 (091e20e, 2023-11-25, custom)"
   xmlns:inkscape="http://www.inkscape.org/namespaces/inkscape"
   xmlns:sodipodi="http://sodipodi.sourceforge.net/DTD/sodipodi-0.dtd"
   xmlns="http://www.w3.org/2000/svg"
   xmlns:svg="http://www.w3.org/2000/svg">
  <sodipodi:namedview
     id="namedview1"
     pagecolor="#ffffff"
     bordercolor="#111111"
     borderopacity="1"
     inkscape:showpageshadow="0"
     inkscape:pageopacity="0"
     inkscape:pagecheckerboard="1"
     inkscape:deskcolor="#d1d1d1"
     inkscape:document-units="px"
     inkscape:zoom="1.0242632"
     inkscape:cx="305.58551"
     inkscape:cy="290.45268"
     inkscape:window-width="1920"
     inkscape:window-height="1009"
     inkscape:window-x="-8"
     inkscape:window-y="-8"
     inkscape:window-maximized="1"
     inkscape:current-layer="g7" />
  <defs
     id="defs1" />
  <g
     inkscape:label="Layer 8"
     inkscape:groupmode="layer"
     id="g7"
     style="display:inline">
    <path
       id="path6"
       style="fill:#be772b;stroke:#602c2c;stroke-width:1.765;stroke-linecap:round"
       d="m 126.31641,70.132729 c 0,27.605456 -28.555016,42.234621 -57.087788,42.234621 -28.53277,0 -58.637677,-14.629167 -58.637679,-42.234621 -10e-7,-27.605456 30.363222,-42.751259 58.895995,-42.75126 28.532774,-10e-7 56.829472,15.145803 56.829472,42.75126 z"
       sodipodi:nodetypes="sssss" />
  </g>
  <g
     inkscape:label="Layer 7"
     inkscape:groupmode="layer"
     id="g6"
     style="display:inline">
    <path
       id="path5"
       style="fill:#be772b;stroke:#602c2c;stroke-width:1.765;stroke-linecap:round"
       d="m 130.70778,69.874413 c 0,27.605456 -32.946386,33.710197 -61.479158,33.710197 -28.53277,0 -65.095571,-5.846427 -65.095573,-33.451881 -1e-6,-27.605456 36.304484,-35.776734 64.837257,-35.776735 28.532774,-1e-6 61.737474,7.912962 61.737474,35.518419 z"
       sodipodi:nodetypes="sssss" />
  </g>
  <g
     inkscape:label="Layer 6"
     inkscape:groupmode="layer"
     id="g5"
     style="display:inline">
    <path
       id="ellipse4"
       style="fill:#be772b;stroke:#602c2c;stroke-width:1.765;stroke-linecap:round"
       d="m 126.31641,70.132729 c 0,27.605456 -28.555016,42.234621 -57.087788,42.234621 -28.53277,0 -58.637677,-14.629167 -58.637679,-42.234621 -10e-7,-27.605456 30.363222,-42.751259 58.895995,-42.75126 28.532774,-10e-7 56.829472,15.145803 56.829472,42.75126 z"
       sodipodi:nodetypes="sssss" />
  </g>
  <g
     inkscape:label="Layer 5"
     inkscape:groupmode="layer"
     id="g4"
     style="display:inline">
    <path
       id="ellipse3"
       style="fill:#be772b;stroke:#602c2c;stroke-width:1.765;stroke-linecap:round"
       d="M 120.89178,70.391045 A 51.663155,49.9841 0 0 1 69.228622,120.37514 51.663155,49.9841 0 0 1 17.565468,70.391045 51.663155,49.9841 0 0 1 69.228622,20.406944 51.663155,49.9841 0 0 1 120.89178,70.391045 Z" />
  </g>
  <g
     inkscape:label="Layer 4"
     inkscape:groupmode="layer"
     id="g3"
     style="display:inline">
    <path
       id="path3"
       style="display:inline;fill:#be772b;stroke:#602c2c;stroke-width:1.765;stroke-linecap:round"
       d="m 115.46715,70.132729 c 0,27.605456 -16.930809,56.441991 -45.463581,56.441991 -28.53277,0 -44.688625,-29.094853 -44.688628,-56.700307 -1e-6,-27.605456 15.639224,-55.150415 44.171997,-55.150416 28.532774,-1e-6 45.980212,27.803275 45.980212,55.408732 z"
       sodipodi:nodetypes="sssss" />
  </g>
  <g
     inkscape:label="Layer 3"
     inkscape:groupmode="layer"
     id="g2"
     style="display:inline">
    <path
       id="path2"
       style="fill:#be772b;stroke:#602c2c;stroke-width:1.765;stroke-linecap:round"
       d="m 109.00926,70.132729 c 0,27.605456 -10.731235,62.383251 -39.264007,62.383251 -28.53277,0 -36.42252,-35.294429 -36.422523,-62.899883 -10e-7,-27.605456 7.631435,-61.349993 36.164208,-61.349994 28.532774,-10e-7 39.522322,34.261169 39.522322,61.866626 z"
       sodipodi:nodetypes="sssss" />
  </g>
  <g
     inkscape:label="Layer 2"
     inkscape:groupmode="layer"
     id="g1"
     style="display:inline">
    <path
       id="ellipse1"
       style="display:inline;fill:#be772b;stroke:#602c2c;stroke-width:1.765;stroke-linecap:round"
       d="m 115.46715,70.132729 c 0,27.605456 -16.930809,56.441991 -45.463581,56.441991 -28.53277,0 -44.688625,-29.094853 -44.688628,-56.700307 -1e-6,-27.605456 15.639224,-55.150415 44.171997,-55.150416 28.532774,-1e-6 45.980212,27.803275 45.980212,55.408732 z"
       sodipodi:nodetypes="sssss" />
  </g>
  <g
     inkscape:label="Layer 1"
     inkscape:groupmode="layer"
     id="layer1"
     style="display:inline">
    <ellipse
       style="fill:#be772b;stroke:#602c2c;stroke-width:1.765;stroke-linecap:round"
       id="path1"
       cx="69.228622"
       cy="70.391045"
       rx="51.663155"
       ry="49.9841" />
  </g>
</svg>
